<?xml version="1.0" standalone="no"?>
<!DOCTYPE svg PUBLIC "-//W3C//DTD SVG 20010904//EN"
 "http://www.w3.org/TR/2001/REC-SVG-20010904/DTD/svg10.dtd">
<svg version="1.0" xmlns="http://www.w3.org/2000/svg"
 width="500.000000pt" height="500.000000pt" viewBox="0 0 500.000000 500.000000"
 preserveAspectRatio="xMidYMid meet">

<g transform="translate(0.000000,500.000000) scale(0.100000,-0.100000)"
fill="#000000" stroke="none">
<path d="M1082 2760 c-134 -38 -247 -72 -252 -75 -12 -8 -13 -362 -1 -369 25
-16 516 -145 523 -138 4 4 7 152 6 328 -3 274 -5 319 -18 321 -8 1 -124 -29
-258 -67z m215 -206 c-1 -2 -86 20 -187 48 l-184 52 155 42 c85 24 168 47 184
51 l30 9 3 -99 c1 -55 1 -101 -1 -103z m-219 -6 c83 -23 152 -45 152 -48 0 -4
-248 -76 -337 -98 -10 -3 -13 19 -13 98 0 101 0 102 23 96 12 -3 91 -24 175
-48z m222 -198 c0 -67 -4 -100 -11 -100 -24 0 -349 94 -343 99 6 6 321 98 342
100 9 1 12 -25 12 -99z"/>
<path d="M1517 2683 c-4 -3 -7 -87 -7 -185 l0 -178 35 0 35 0 0 75 0 75 69 0
c60 0 74 4 100 26 59 50 46 150 -23 179 -36 15 -196 21 -209 8z m189 -74 c19
-15 18 -44 -2 -63 -10 -11 -34 -16 -70 -16 l-54 0 0 43 c0 24 3 47 8 51 10 11
101 -1 118 -15z"/>
<path d="M2144 2676 c-3 -8 -4 -85 -2 -171 3 -175 8 -185 75 -185 28 0 33 4
33 24 0 15 -7 26 -20 29 -19 5 -20 14 -20 161 l0 156 -30 0 c-17 0 -33 -6 -36
-14z"/>
<path d="M3610 2504 l0 -185 33 3 32 3 -3 58 c-2 34 1 57 7 57 5 0 31 -27 57
-60 43 -55 50 -60 87 -60 45 0 48 -7 -37 93 l-50 58 59 59 59 60 -40 0 c-34 0
-46 -6 -84 -45 -24 -25 -48 -45 -52 -45 -4 0 -8 43 -8 95 l0 95 -30 0 -30 0 0
-186z"/>
<path d="M1921 2590 c-107 -25 -136 -172 -49 -245 23 -19 41 -25 79 -25 92 0
139 45 139 135 0 25 -7 59 -15 75 -25 48 -92 74 -154 60z m79 -70 c29 -29 35
-67 17 -106 -42 -87 -147 -33 -126 66 13 58 69 80 109 40z"/>
<path d="M2670 2589 c-13 -6 -28 -15 -32 -22 -5 -8 -8 -6 -8 6 0 13 -8 17 -35
17 l-35 0 0 -135 0 -135 35 0 35 0 0 98 c0 104 7 122 47 122 33 0 43 -29 43
-129 l0 -91 30 0 30 0 0 83 c0 100 14 132 55 132 l30 0 5 -105 5 -105 33 -3
34 -3 -4 115 c-3 103 -5 118 -25 137 -26 26 -96 30 -120 6 -13 -13 -19 -14
-37 -2 -32 20 -59 24 -86 14z"/>
<path d="M3095 2590 c-74 -16 -105 -57 -105 -140 0 -43 5 -55 33 -86 82 -89
223 -45 235 74 9 103 -65 173 -163 152z m68 -62 c24 -18 35 -67 25 -106 -17
-64 -95 -69 -125 -8 -36 76 38 159 100 114z"/>
<path d="M3395 2589 c-84 -24 -122 -129 -75 -206 32 -52 65 -67 144 -64 28 1
96 57 96 80 0 20 -64 13 -78 -9 -26 -43 -96 -19 -111 37 -9 30 -7 44 7 73 14
29 23 35 54 38 29 2 40 -2 50 -17 9 -14 23 -21 45 -21 37 0 37 0 22 33 -20 45
-97 73 -154 56z"/>
<path d="M2270 2584 c0 -4 21 -63 46 -130 52 -141 53 -166 9 -174 -22 -4 -31
-11 -33 -28 -7 -47 88 -41 113 8 16 32 115 308 115 322 0 4 -15 8 -33 8 -32 0
-32 0 -56 -87 -13 -49 -27 -91 -30 -95 -4 -4 -20 35 -35 87 l-29 95 -33 0
c-19 0 -34 -3 -34 -6z"/>
</g>
</svg>
