<?xml version="1.0" standalone="no"?>
<!DOCTYPE svg PUBLIC "-//W3C//DTD SVG 20010904//EN"
 "http://www.w3.org/TR/2001/REC-SVG-20010904/DTD/svg10.dtd">
<svg version="1.0" xmlns="http://www.w3.org/2000/svg"
 width="500.000000pt" height="500.000000pt" viewBox="0 0 500.000000 500.000000"
 preserveAspectRatio="xMidYMid meet">

<g transform="translate(0.000000,500.000000) scale(0.100000,-0.100000)"
fill="#000000" stroke="none">
<path d="M0 2500 l0 -2500 2500 0 2500 0 0 2500 0 2500 -2500 0 -2500 0 0
-2500z m2659 898 c86 -50 217 -128 291 -173 l135 -81 3 -327 c1 -180 -1 -327
-6 -327 -4 0 -51 25 -103 56 -51 31 -154 90 -227 131 l-134 75 113 67 112 66
-1 185 c-1 102 -1 188 -2 193 0 17 -32 0 -268 -142 -300 -180 -621 -367 -645
-377 -17 -6 -18 6 -17 197 l1 204 292 173 c160 94 293 172 296 172 2 0 75 -41
160 -92z m-169 -748 c-12 -8 -13 -10 -1 -10 11 0 11 -4 -2 -18 -11 -12 -30
-18 -53 -17 -19 0 -38 -3 -40 -7 -3 -4 -11 -8 -17 -8 -7 0 -4 7 6 14 10 8 28
12 40 10 12 -2 16 -1 8 2 -10 5 -3 14 25 30 21 13 40 21 43 18 3 -3 -1 -9 -9
-14z m-175 -116 c-15 -11 -20 -11 -27 -1 -7 11 -12 3 -10 -15 2 -10 -27 -18
-33 -8 -8 13 32 38 62 38 25 0 26 -1 8 -14z m-60 -212 c-3 -3 -11 0 -18 7 -9
10 -8 11 6 5 10 -3 15 -9 12 -12z m40 -13 c11 -17 -1 -21 -15 -4 -8 9 -8 15
-2 15 6 0 14 -5 17 -11z m-25 -14 c7 -8 8 -15 2 -15 -5 0 -15 7 -22 15 -7 8
-8 15 -2 15 5 0 15 -7 22 -15z m55 -25 c-3 -5 -13 -6 -21 -3 -12 4 -13 8 -3
14 15 9 32 2 24 -11z m35 -10 c0 -5 -8 -10 -17 -10 -15 0 -16 2 -3 10 19 12
20 12 20 0z m35 -10 c-3 -5 -11 -10 -16 -10 -6 0 -7 5 -4 10 3 6 11 10 16 10
6 0 7 -4 4 -10z m20 -30 c3 -5 2 -10 -4 -10 -5 0 -13 5 -16 10 -3 6 -2 10 4
10 5 0 13 -4 16 -10z m72 -32 c9 -15 13 -38 7 -38 -14 0 -53 34 -48 41 8 13
32 11 41 -3z m-499 -460 l2 -178 -35 0 -35 0 0 173 c0 96 3 177 7 181 4 4 19
6 33 4 l25 -3 3 -177z m-491 138 c37 -23 53 -53 53 -104 0 -73 -41 -104 -145
-112 l-70 -5 -3 -47 c-3 -46 -5 -48 -33 -48 l-29 0 0 171 0 171 98 -4 c72 -3
105 -9 129 -22z m1045 14 c75 -21 109 -101 73 -170 -22 -42 -63 -60 -140 -60
l-65 0 0 -50 c0 -49 -1 -50 -30 -50 l-30 0 0 170 0 170 78 0 c42 0 94 -5 114
-10z m-721 -106 c66 -63 55 -170 -22 -210 -43 -22 -121 -18 -153 7 -57 45 -72
118 -36 177 41 68 153 82 211 26z m303 -62 l40 -93 40 96 c37 89 42 95 69 95
34 0 37 11 -46 -180 -54 -122 -69 -148 -96 -164 -56 -33 -131 -2 -102 43 7 10
13 11 30 1 18 -9 27 -8 47 5 13 8 24 21 24 28 0 6 -25 68 -55 137 -30 69 -55
126 -55 128 0 2 14 2 32 0 30 -3 35 -8 72 -96z m724 87 c45 -16 62 -60 62
-163 l0 -86 -30 0 c-16 0 -30 5 -30 10 0 7 -6 7 -19 0 -25 -13 -97 -13 -122 1
-29 15 -42 57 -29 90 15 35 48 49 115 49 60 0 67 8 34 41 -21 21 -65 23 -111
4 -11 -4 -20 0 -28 14 -10 19 -7 23 22 36 40 17 94 19 136 4z m192 -4 c0 -14
3 -14 30 0 95 49 205 -34 185 -141 -4 -23 -20 -51 -40 -71 -28 -28 -40 -33
-80 -33 -25 0 -55 5 -66 10 -18 10 -19 7 -19 -45 l0 -55 -35 0 -35 0 0 168 c0
93 3 172 7 175 13 14 53 7 53 -8z m457 -5 c37 -22 48 -41 58 -93 l7 -37 -101
0 c-82 0 -101 -3 -101 -15 0 -8 11 -22 25 -31 24 -16 61 -16 112 1 16 5 24 2
32 -14 10 -18 7 -22 -18 -36 -43 -22 -119 -19 -159 5 -61 37 -77 123 -34 188
33 51 122 67 179 32z m173 5 c0 -14 3 -14 30 0 45 23 60 20 60 -15 0 -24 -4
-30 -22 -30 -50 0 -68 -36 -68 -129 l0 -71 -30 0 -30 0 0 130 0 130 30 0 c20
0 30 -5 30 -15z"/>
<path d="M1330 1765 l0 -65 54 0 c90 0 137 59 86 110 -16 16 -33 20 -80 20
l-60 0 0 -65z"/>
<path d="M2410 1765 l0 -65 55 0 c47 0 60 4 81 26 20 19 24 31 19 52 -9 40
-32 52 -97 52 l-58 0 0 -65z"/>
<path d="M1692 1750 c-46 -19 -52 -105 -9 -135 54 -38 117 -4 117 64 0 31 -6
44 -26 60 -29 23 -46 25 -82 11z"/>
<path d="M2746 1644 c-9 -8 -16 -17 -16 -19 0 -13 35 -35 56 -35 27 0 64 32
64 55 0 21 -83 21 -104 -1z"/>
<path d="M3076 1739 c-52 -41 -24 -139 40 -139 37 0 61 16 72 50 14 40 -1 84
-34 99 -35 16 -47 14 -78 -10z"/>
<path d="M3382 1744 c-43 -30 -28 -44 49 -44 73 0 75 2 41 43 -19 21 -60 22
-90 1z"/>
</g>
</svg>
