<?xml version="1.0" standalone="no"?>
<!DOCTYPE svg PUBLIC "-//W3C//DTD SVG 20010904//EN"
 "http://www.w3.org/TR/2001/REC-SVG-20010904/DTD/svg10.dtd">
<svg version="1.0" xmlns="http://www.w3.org/2000/svg"
 width="500.000000pt" height="500.000000pt" viewBox="0 0 500.000000 500.000000"
 preserveAspectRatio="xMidYMid meet">
<rect width="100%" height="100%" fill="#FFFFFF"/>

<g transform="translate(0.000000,500.000000) scale(0.100000,-0.100000)"
fill="#000000" stroke="none">
<path d="M2490 2945 c-356 -118 -408 -138 -432 -165 l-28 -30 0 -249 0 -249
26 -31 c23 -28 70 -45 441 -168 392 -129 417 -136 442 -122 l26 15 3 547 c2
536 2 547 -18 567 -11 11 -28 20 -37 19 -10 0 -200 -60 -423 -134z m347 -7
c-31 -75 -301 -665 -307 -671 -6 -7 -25 385 -25 532 l0 44 155 53 c167 56 185
61 177 42z m29 -896 c-6 -5 -287 87 -299 98 -5 4 60 161 145 348 l153 341 3
-391 c1 -215 0 -393 -2 -396z m-611 546 c-65 -112 -120 -205 -122 -207 -2 -3
-2 73 -1 169 l3 174 115 36 c63 20 117 35 119 34 2 -2 -50 -94 -114 -206z
m199 -125 c7 -158 12 -289 11 -290 0 -1 -71 21 -157 48 l-156 51 85 146 c47
81 110 191 141 244 31 54 58 96 60 93 2 -2 10 -134 16 -292z"/>
</g>
</svg>
